<?xml version="1.0" encoding="UTF-8" standalone="no"?> <svg xmlns:dc="http://purl.org/dc/elements/1.1/" xmlns:cc="http://creativecommons.org/ns#" xmlns:rdf="http://www.w3.org/1999/02/22-rdf-syntax-ns#" xmlns:svg="http://www.w3.org/2000/svg" xmlns="http://www.w3.org/2000/svg" xmlns:sodipodi="http://sodipodi.sourceforge.net/DTD/sodipodi-0.dtd" xmlns:inkscape="http://www.inkscape.org/namespaces/inkscape" id="Layer_1" data-name="Layer 1" viewBox="0 0 693 144" version="1.1" sodipodi:docname="Pantacor_Logo.svg" inkscape:version="0.92.5 (2060ec1f9f, 2020-04-08)"><metadata id="metadata176"></metadata><defs id="defs115"><style id="style113">.cls-1{fill:#653cf1;}.cls-2{fill:#2a2f38;}</style></defs><rect class="cls-1" x="48" y="32" width="16" height="16" id="rect117"></rect><rect class="cls-1" x="64" y="48" width="16" height="16" id="rect119"></rect><rect class="cls-1" x="96" y="48" width="16" height="16" id="rect121"></rect><rect class="cls-1" x="112" y="16" width="16" height="16" id="rect123"></rect><rect class="cls-1" x="16" y="16" width="16" height="16" transform="translate(48) rotate(90)" id="rect125"></rect><rect class="cls-1" x="16" y="112" width="16" height="16" transform="translate(48 240) rotate(180)" id="rect127"></rect><rect class="cls-1" x="112" y="112" width="16" height="16" transform="translate(0 240) rotate(-90)" id="rect129"></rect><rect class="cls-1" x="32" y="48" width="16" height="16" id="rect131"></rect><rect class="cls-1" x="80" y="32" width="16" height="16" id="rect133"></rect><rect class="cls-1" x="48" y="64" width="16" height="16" id="rect135"></rect><rect class="cls-1" x="64" y="80" width="16" height="16" id="rect137"></rect><rect class="cls-1" x="96" y="80" width="16" height="16" id="rect139"></rect><rect class="cls-1" x="32" y="80" width="16" height="16" id="rect141"></rect><rect class="cls-1" x="80" y="64" width="16" height="16" id="rect143"></rect><rect class="cls-1" x="48" y="96" width="16" height="16" id="rect145"></rect><rect class="cls-1" x="80" y="96" width="16" height="16" id="rect147"></rect><rect class="cls-1" x="64" width="16" height="16" id="rect149"></rect><rect class="cls-1" x="64" y="128" width="16" height="16" id="rect151"></rect><rect class="cls-1" x="128" y="64" width="16" height="16" transform="translate(208 -64) rotate(90)" id="rect153"></rect><rect class="cls-1" y="64" width="16" height="16" transform="translate(80 64) rotate(90)" id="rect155"></rect><path class="cls-2" d="M184,38h15v9.74c5.55-7.41,13.89-11.39,23.89-11.39,19.16,0,32.5,14.68,32.5,35.94S242.05,108.22,223,108.22A29.5,29.5,0,0,1,199,96.7V134H184Zm55.31,33.76c0-13.06-8.25-21.86-20.63-21.86s-20.62,8.66-20.62,21.86,8.25,21.87,20.62,21.87S239.31,84.83,239.31,71.76Z" id="path157"></path><path class="cls-2" d="M291,35.59c19.45,0,29,8.94,29,26.81V106H305V96.51c-4.72,7-12.5,11.14-22.08,11.14-14,0-23.47-8.94-23.47-21.59,0-11.83,8.47-20.08,22.22-21.32L301,62.82c2.92-.28,4-1.24,4-3.17V58.14c0-5.78-5-9.21-13.75-9.21-9.58,0-16,4-17.64,10.72l-12.08-7.56C265.14,41.36,275.42,35.59,291,35.59ZM286.2,76.85c-6.33.69-9.91,4-9.91,8.94,0,5.5,4.27,8.94,11.28,8.94C298,94.73,306,87.44,306,78.36v-4Z" id="path159"></path><path class="cls-2" d="M329,37h14V47.49c5.27-8.14,13.32-12.15,22.89-12.15,15.95,0,25.11,10.35,25.11,28.29V106H376V66.39c0-10.86-5.22-16.78-15-16.78-11.12,0-17,8.25-17,23.93V106H329Z" id="path161"></path><path class="cls-2" d="M426.61,106.87C413.9,106.87,407,101.21,407,86V50H394V37h13V19h15V37h18V50H422V85.07c0,4.81,2.06,7.29,7.42,7.29A62.67,62.67,0,0,0,440,91.26v13.68A49.14,49.14,0,0,1,426.61,106.87Z" id="path163"></path><path class="cls-2" d="M475,35.59c19.45,0,29,8.94,29,26.81V106H489V96.51c-4.72,7-12.5,11.14-22.08,11.14-14,0-23.47-8.94-23.47-21.59,0-11.83,8.47-20.08,22.22-21.32L485,62.82c2.92-.28,4-1.24,4-3.17V58.14c0-5.78-5-9.21-13.75-9.21-9.58,0-16,4-17.64,10.72l-12.08-7.56C449.14,41.36,459.42,35.59,475,35.59ZM469.2,76.85c-6.33.69-9.91,4-9.91,8.94,0,5.5,4.27,8.94,11.28,8.94C481,94.73,489,87.44,489,78.36v-4Z" id="path165"></path><path class="cls-2" d="M546.5,35.73c10.18,0,18.85,3.44,25.45,10L563,57.46c-5.23-4.81-10.73-7.29-16.92-7.29-12.38,0-20.77,8.8-20.77,21.59s8.53,21.6,20.63,21.6c6.47,0,12.52-2.62,17.75-7.57l8.52,11.83c-6.6,6.6-15.81,10.18-26.27,10.18-21.31,0-35.89-14.58-35.89-35.9S525.05,35.73,546.5,35.73Z" id="path167"></path><path class="cls-2" d="M608,35.73c20.91,0,36.45,15,36.45,36s-15.54,36-36.45,36-36.44-15-36.44-36S587.08,35.73,608,35.73Zm0,14.44c-12.38,0-21.18,8.8-21.18,21.59s8.8,21.6,21.18,21.6,21.18-8.81,21.18-21.6S620.36,50.17,608,50.17Z" id="path169"></path><path class="cls-2" d="M686.5,35.35a24.79,24.79,0,0,1,6.5.82V52.53a32.09,32.09,0,0,0-7.45-.94C672,51.59,667,60.12,667,74.47V106H652V37h15V47.87C671,40,677.21,35.35,686.5,35.35Z" id="path171"></path></svg> 